<svg width="39" height="40" viewBox="0 0 39 40" fill="none" xmlns="http://www.w3.org/2000/svg">
<path d="M19.5 0.625C8.79688 0.625 0.125 9.375 0.125 20C0.125 30.7031 8.79688 39.375 19.5 39.375C30.125 39.375 38.875 30.7031 38.875 20C38.875 9.375 30.125 0.625 19.5 0.625ZM19.5 36.875C10.2031 36.875 2.625 29.375 2.625 20C2.625 10.7812 10.125 3.125 19.5 3.125C28.7188 3.125 36.375 10.7031 36.375 20C36.375 29.2969 28.7969 36.875 19.5 36.875ZM30.5156 15.4688C30.9062 15.0781 30.9062 14.4531 30.5156 14.1406L29.8906 13.4375C29.5 13.0469 28.875 13.0469 28.5625 13.4375L15.75 26.0938L10.3594 20.7031C10.0469 20.3125 9.42188 20.3125 9.03125 20.7031L8.40625 21.3281C8.01562 21.7188 8.01562 22.2656 8.40625 22.6562L15.125 29.4531C15.4375 29.7656 16.0625 29.7656 16.4531 29.4531L30.5156 15.4688Z" fill="#0096FF"/>
</svg>